<?xml version="1.0" encoding="utf-8"?>
<!-- Generator: Adobe Illustrator 16.0.0, SVG Export Plug-In . SVG Version: 6.00 Build 0)  -->
<!DOCTYPE svg PUBLIC "-//W3C//DTD SVG 1.1//EN" "http://www.w3.org/Graphics/SVG/1.1/DTD/svg11.dtd">
<svg version="1.1" id="Layer_1" xmlns="http://www.w3.org/2000/svg" xmlns:xlink="http://www.w3.org/1999/xlink" x="0px" y="0px"
	 width="30px" height="30px" viewBox="0 0 30 30" enable-background="new 0 0 30 30" xml:space="preserve">
<path fill="#E3E6EA" d="M25.072,0H4.928C2.207,0,0,2.207,0,4.928v20.145C0,27.794,2.207,30,4.928,30h20.145
	C27.794,30,30,27.794,30,25.072V4.928C30,2.207,27.794,0,25.072,0z M14.571,25.152c-1.27,0-2.312-1.047-2.312-2.314
	s1.042-2.339,2.312-2.339c1.268,0,2.34,1.071,2.34,2.339S15.839,25.152,14.571,25.152z M16.291,15.677v0.93
	c0,0.34-0.197,0.593-0.564,0.593h-2.285c-0.28,0-0.535-0.225-0.535-0.537v-1.183c0-2.679,3.919-3.694,3.919-5.667
	c0-1.016-0.845-1.89-2.255-1.89c-1.722,0-2.482,1.1-3.047,1.466c-0.225,0.141-0.422,0.141-0.62-0.027L9.58,8.063
	c-0.225-0.197-0.198-0.536,0-0.733c0,0,1.917-2.481,5.526-2.481c2.962,0,5.472,1.974,5.472,4.737
	C20.578,12.998,16.291,13.985,16.291,15.677z"/>
</svg>
